<svg width="13" height="11" fill="none" xmlns="http://www.w3.org/2000/svg"><path d="M10.998 6.75v3.75a.48.48 0 0 1-.148.352.48.48 0 0 1-.352.148h-3V8h-2v3h-3a.48.48 0 0 1-.352-.148.48.48 0 0 1-.148-.352V6.727a.06.06 0 0 0 .008-.024L6.498 3l4.492 3.703c.005.01.008.026.008.047Zm1.742-.54-.484.58a.266.266 0 0 1-.164.085h-.024a.24.24 0 0 1-.164-.055L6.498 2.312 1.092 6.82a.29.29 0 0 1-.188.055.266.266 0 0 1-.164-.086l-.484-.578A.247.247 0 0 1 .2 6.03a.23.23 0 0 1 .086-.172l5.617-4.68a.912.912 0 0 1 .594-.202c.23 0 .427.067.594.203l1.906 1.593V1.25c0-.073.024-.133.07-.18a.243.243 0 0 1 .18-.07h1.5c.073 0 .133.023.18.07.047.047.07.107.07.18v3.188l1.711 1.421a.23.23 0 0 1 .086.172.247.247 0 0 1-.055.18Z" fill="#000"/></svg>